# xmcd
#
# Track frame offsets:
#	150
#	25167
#	45735
#	63595
#	91555
#	116522
#	137127
#	154975
#
# Disc length: 2410 seconds
#
# Revision: 1
# Processed by: cddbd v1.5.1PL0 Copyright (c) Steve Scherf et al.
# Submitted via: CDex 1.50Beta5
#
DISCID=63096808
DTITLE=dream,フルーツポンチ,SweetS - 1st X'mas
DYEAR=2003
DGENRE=Pop
TTITLE0=dream,フルーツポンチ,SweetS/アイ　ラブ　ドリーム　ワールド　〜世界中のしあわせを歌おう〜 [White X'mas Ver.]
TTITLE1=Dream/Everlasting Snow (dream)
TTITLE2=フルーチポンチ/秘密のクリスマス (フルーツポンチ)
TTITLE3=SweetS/Never Ending Story
TTITLE4=dream,フルーツポンチ,SweetS/アイ　ラブ　ワールド　?世界中のしあわせを歌おう? [White X'mas Ver.] (Instrumental)
TTITLE5=Dream/Everlasting Snow (Instrumental)
TTITLE6=フルーツポンチ/秘密のクリスマス (Instrumental)
TTITLE7=SweetS/Never Ending Story (Instrumental)
EXTD=
EXTT0=
EXTT1=
EXTT2=
EXTT3=
EXTT4=
EXTT5=
EXTT6=
EXTT7=
PLAYORDER=
